<?xml version="1.0" encoding="UTF-8" standalone="no"?>
<svg width="639px" height="81px" viewBox="0 0 639 81" version="1.1" xmlns="http://www.w3.org/2000/svg" xmlns:xlink="http://www.w3.org/1999/xlink">
    <!-- Generator: Sketch 3.8.3 (29802) - http://www.bohemiancoding.com/sketch -->
    <defs></defs>
    <g id="Page-1" stroke="none" stroke-width="1" fill="none" fill-rule="evenodd">
        <g id="logo-oracle-red" transform="translate(0.000000, -1.000000)" fill="#fff">
            <g id="layer1" transform="translate(0.346200, 0.416300)">
                <g id="g16337">
                    <path d="M265.65099,52.70039 L306.3029,52.70039 L284.80762,18.1177 L245.35637,80.64472 L227.40142,80.64472 L275.38729,5.53644 C277.47368,2.50175 280.95082,0.66834 284.80762,0.66834 C288.5375,0.66834 292.0147,2.43856 294.0379,5.41 L342.2134,80.64472 L324.2584,80.64472 L315.7865,66.67256 L274.62847,66.67256 L265.65099,52.70039 L265.65099,52.70039 Z M452.1573,66.67256 L452.1573,1.42701 L436.9207,1.42701 L436.9207,73.05805 C436.9207,75.01795 437.6795,76.9146 439.1335,78.3687 C440.5874,79.82285 442.5474,80.64472 444.697,80.64472 L514.1786,80.64472 L523.1561,66.67256 L452.1573,66.67256 L452.1573,66.67256 Z M200.08933,54.97641 C214.88361,54.97641 226.89588,43.02739 226.89588,28.23331 C226.89588,13.43928 214.88361,1.42701 200.08933,1.42701 L133.43367,1.42701 L133.43367,80.64472 L148.66423,80.64472 L148.66423,15.39918 L199.07773,15.39918 C206.15891,15.39918 211.84882,21.15238 211.84882,28.23331 C211.84882,35.31423 206.15891,41.06749 199.07773,41.06749 L156.12457,41.00424 L201.60647,80.64472 L223.7347,80.64472 L193.13505,54.97641 L200.08933,54.97641 L200.08933,54.97641 Z M39.67521,80.64472 C17.80632,80.64472 0.05966,62.94244 0.05966,41.06749 C0.05966,19.19249 17.80632,1.42701 39.67521,1.42701 L85.71978,1.42701 C107.59473,1.42701 125.32876,19.19249 125.32876,41.06749 C125.32876,62.94244 107.59473,80.64472 85.71978,80.64472 L39.67521,80.64472 L39.67521,80.64472 Z M84.69555,66.67256 C98.86396,66.67256 110.33883,55.22928 110.33883,41.06749 C110.33883,26.90564 98.86396,15.39918 84.69555,15.39918 L40.69287,15.39918 C26.53103,15.39918 15.04958,26.90564 15.04958,41.06749 C15.04958,55.22928 26.53103,66.67256 40.69287,66.67256 L84.69555,66.67256 L84.69555,66.67256 Z M374.0142,80.64472 C352.1392,80.64472 334.3739,62.94244 334.3739,41.06749 C334.3739,19.19249 352.1392,1.42701 374.0142,1.42701 L428.7016,1.42701 L419.7873,15.39918 L375.0258,15.39918 C360.8639,15.39918 349.3577,26.90564 349.3577,41.06749 C349.3577,55.22928 360.8639,66.67256 375.0258,66.67256 L429.9659,66.67256 L420.9885,80.64472 L374.0142,80.64472 L374.0142,80.64472 Z M560.3309,66.67256 C548.6346,66.67256 538.7087,58.83296 535.6739,48.02192 L600.7932,48.02192 L609.7707,34.04976 L535.6739,34.04976 C538.7087,23.30196 548.6346,15.39918 560.3309,15.39918 L605.0292,15.39918 L614.0699,1.42701 L559.3193,1.42701 C537.4443,1.42701 519.679,19.19249 519.679,41.06749 C519.679,62.94244 537.4443,80.64472 559.3193,80.64472 L606.2936,80.64472 L615.271,66.67256 L560.3309,66.67256 L560.3309,66.67256 Z" id="path16197"></path>
                    <path d="M622.2258,9.8356 C622.2258,5.97899 625.3233,2.88111 629.1801,2.88111 C633.1001,2.88111 636.1976,5.97899 636.1976,9.8356 C636.1976,13.75534 633.1001,16.85328 629.1801,16.85328 C625.3233,16.85328 622.2258,13.75534 622.2258,9.8356 L622.2258,9.8356 Z M629.1801,18.81317 C634.1112,18.81317 638.0944,14.83013 638.0944,9.89879 C638.0944,4.96745 634.1112,0.98446 629.1801,0.98446 C624.3117,0.98446 620.329,4.96745 620.329,9.89879 C620.329,14.83013 624.3117,18.81317 629.1801,18.81317 L629.1801,18.81317 Z M628.3581,4.58814 C629.7489,4.58814 630.3181,4.65133 630.9505,4.9042 C632.7205,5.47325 632.91,7.05378 632.91,7.68602 C632.91,7.81246 632.91,8.12857 632.7836,8.50788 C632.7205,8.88725 632.4677,9.64592 631.5825,10.21491 C631.4561,10.27815 631.3929,10.34135 631.1401,10.46778 L633.4161,14.57726 L631.2033,14.57726 L629.1801,10.7839 L627.7894,10.7839 L627.7894,14.57726 L625.8294,14.57726 L625.8294,4.58814 L628.3581,4.58814 L628.3581,4.58814 Z M629.0537,9.14012 C629.6857,9.07693 630.3181,9.07693 630.6973,8.50788 C630.8868,8.25501 630.9505,8.00214 630.9505,7.62277 C630.9505,7.11703 630.6341,6.67447 630.1917,6.42155 C629.7489,6.23192 629.3065,6.23192 628.3581,6.23192 L627.7894,6.23192 L627.7894,9.14012 L629.0537,9.14012 L629.0537,9.14012 Z" id="path16199"></path>
                </g>
            </g>
        </g>
    </g>
</svg>